<svg xmlns="http://www.w3.org/2000/svg" xmlns:xlink="http://www.w3.org/1999/xlink" width="161" height="160" viewBox="0 0 161 160"><defs><path id="a" d="M670 1741.5c0 2.6-3.9 4.95-4.19 7.47-.28 2.58 3 5.74 2.44 8.22-.58 2.52-4.9 3.95-5.75 6.36-.85 2.43 1.64 6.25.53 8.55-1.12 2.32-5.66 2.74-7.02 4.9-1.37 2.18.21 6.46-1.39 8.46-1.6 2-6.12 1.41-7.94 3.22-1.81 1.82-1.22 6.34-3.22 7.94-2 1.6-6.28.02-8.46 1.39-2.16 1.36-2.58 5.9-4.9 7.02-2.3 1.11-6.12-1.38-8.56-.53-2.4.84-3.83 5.17-6.35 5.75-2.48.56-5.64-2.72-8.21-2.44-2.53.28-4.88 4.19-7.48 4.19-2.6 0-4.95-3.9-7.48-4.19-2.57-.28-5.73 3-8.21 2.44-2.52-.58-3.95-4.9-6.36-5.75-2.43-.85-6.25 1.64-8.55.53-2.32-1.12-2.74-5.66-4.9-7.02-2.18-1.37-6.46.2-8.46-1.39-2-1.6-1.41-6.12-3.23-7.94-1.8-1.81-6.33-1.22-7.93-3.22-1.6-2-.02-6.28-1.39-8.46-1.36-2.16-5.9-2.58-7.02-4.9-1.11-2.3 1.38-6.12.53-8.56-.84-2.4-5.18-3.83-5.75-6.35-.56-2.48 2.72-5.64 2.44-8.22-.29-2.52-4.2-4.87-4.2-7.47 0-2.6 3.91-4.95 4.2-7.48.28-2.57-3-5.73-2.44-8.21.57-2.52 4.9-3.95 5.75-6.36.85-2.43-1.64-6.25-.53-8.55 1.12-2.32 5.66-2.74 7.02-4.9 1.37-2.18-.21-6.46 1.39-8.46 1.6-2 6.12-1.41 7.94-3.23 1.81-1.8 1.21-6.33 3.22-7.93 2-1.6 6.28-.02 8.46-1.4 2.16-1.35 2.58-5.9 4.9-7.01 2.3-1.11 6.12 1.38 8.55.53 2.41-.84 3.84-5.18 6.36-5.75 2.48-.56 5.64 2.72 8.21 2.43 2.53-.28 4.88-4.18 7.48-4.18 2.6 0 4.95 3.9 7.47 4.18 2.58.3 5.74-3 8.22-2.43 2.52.57 3.95 4.9 6.36 5.75 2.43.85 6.25-1.64 8.55-.53 2.32 1.12 2.74 5.66 4.9 7.02 2.18 1.37 6.46-.21 8.46 1.39 2 1.6 1.41 6.12 3.22 7.94 1.82 1.81 6.34 1.21 7.94 3.22 1.6 2 .02 6.28 1.39 8.46 1.36 2.16 5.9 2.58 7.02 4.9 1.11 2.3-1.38 6.12-.53 8.55.84 2.41 5.17 3.84 5.75 6.36.56 2.48-2.72 5.64-2.44 8.21.29 2.53 4.19 4.88 4.19 7.48z"/><path id="b" d="M678 1741.5c0 2.9-4.35 5.51-4.66 8.32-.32 2.87 3.34 6.39 2.7 9.15-.63 2.8-5.45 4.4-6.4 7.08-.94 2.7 1.84 6.96.6 9.52-1.24 2.58-6.3 3.05-7.82 5.46-1.52 2.43.24 7.19-1.54 9.42-1.79 2.23-6.82 1.57-8.84 3.59-2.02 2.02-1.36 7.05-3.6 8.84-2.22 1.78-6.99.02-9.4 1.54-2.42 1.52-2.89 6.58-5.47 7.82-2.56 1.24-6.81-1.54-9.52-.59-2.68.94-4.27 5.76-7.08 6.4-2.76.63-6.28-3.03-9.15-2.71-2.8.31-5.43 4.66-8.32 4.66-2.9 0-5.52-4.35-8.32-4.66-2.87-.32-6.39 3.34-9.15 2.7-2.8-.63-4.4-5.45-7.08-6.4-2.7-.94-6.96 1.84-9.52.6-2.58-1.24-3.05-6.3-5.46-7.82-2.43-1.52-7.19.24-9.42-1.54-2.23-1.79-1.57-6.82-3.59-8.84-2.02-2.02-7.05-1.36-8.84-3.6-1.78-2.22-.02-6.99-1.54-9.4-1.52-2.42-6.58-2.89-7.82-5.47-1.24-2.56 1.54-6.81.59-9.52-.94-2.68-5.76-4.27-6.4-7.08-.63-2.76 3.03-6.28 2.71-9.15-.31-2.8-4.66-5.43-4.66-8.32 0-2.9 4.35-5.52 4.66-8.32.32-2.87-3.34-6.39-2.7-9.15.63-2.8 5.45-4.4 6.39-7.08.95-2.71-1.83-6.96-.6-9.52 1.25-2.58 6.31-3.05 7.83-5.46 1.52-2.43-.24-7.19 1.54-9.42 1.79-2.23 6.82-1.57 8.84-3.59 2.02-2.02 1.36-7.05 3.6-8.84 2.22-1.78 6.98-.02 9.4-1.54s2.89-6.58 5.47-7.82c2.56-1.24 6.81 1.54 9.52.59 2.68-.94 4.27-5.76 7.08-6.4 2.76-.63 6.28 3.03 9.15 2.71 2.8-.31 5.43-4.66 8.32-4.66 2.9 0 5.51 4.35 8.32 4.66 2.87.32 6.39-3.34 9.15-2.71 2.8.64 4.4 5.46 7.08 6.4 2.7.95 6.96-1.83 9.52-.6 2.58 1.25 3.05 6.3 5.46 7.83 2.43 1.52 7.19-.24 9.42 1.54 2.23 1.79 1.57 6.82 3.59 8.84 2.02 2.02 7.05 1.36 8.84 3.6 1.78 2.22.02 6.98 1.54 9.4s6.58 2.89 7.82 5.47c1.24 2.56-1.54 6.81-.59 9.52.94 2.68 5.76 4.27 6.4 7.08.63 2.76-3.03 6.28-2.71 9.15.31 2.8 4.66 5.43 4.66 8.32z"/><clipPath id="c"><use fill="#fff" xlink:href="#a"/></clipPath></defs><g transform="translate(-519 -1661)"><use fill="#525252" xlink:href="#b"/></g><g transform="translate(-519 -1661)"><use fill="#525252" xlink:href="#a"/><use fill="#fff" fill-opacity="0" stroke="#fff" stroke-linecap="round" stroke-linejoin="round" stroke-miterlimit="50" stroke-opacity=".59" stroke-width="2" clip-path="url(&quot;#c&quot;)" xlink:href="#a"/></g><g transform="translate(-519 -1661)"><text fill="#fff" dominant-baseline="text-before-edge" font-family="Helvetica, Arial, sans-serif" font-size="36" font-style="none" font-weight="400" style="text-transform:uppercase" transform="translate(563 1695)"><tspan style="font-kerning:normal">clearance</tspan></text></g><g transform="translate(-519 -1661)"><text fill="#fff" dominant-baseline="text-before-edge" font-family="Helvetica, Arial, sans-serif" font-size="72" font-style="none" font-weight="400" style="text-transform:uppercase" transform="translate(573 1732)"><tspan letter-spacing="-1.8" style="font-kerning:normal">50</tspan></text></g><g transform="translate(-519 -1661)"><text fill="#fff" dominant-baseline="text-before-edge" font-family="Helvetica, Arial, sans-serif" font-size="32.09" font-style="none" font-weight="400" style="text-transform:uppercase" transform="translate(610 1732)"><tspan letter-spacing="-.32" style="font-kerning:normal">%</tspan></text></g><g transform="translate(-519 -1661)"><text fill="#fff" dominant-baseline="text-before-edge" font-family="Helvetica, Arial, sans-serif" font-size="32.09" font-style="none" font-weight="400" style="text-transform:uppercase" transform="translate(610 1765)"><tspan letter-spacing="-.32" style="font-kerning:normal">off</tspan></text></g></svg>