<svg xmlns="http://www.w3.org/2000/svg" xmlns:xlink="http://www.w3.org/1999/xlink" width="111" height="110" viewBox="0 0 111 110"><defs><path id="a" d="M1030.5 2688a42.5 42.5 0 1 1 0 85 42.5 42.5 0 0 1 0-85z"/><path id="b" d="M1084 2730.5l-4.82 3.66 4.23 4.33-5.31 2.9 3.54 4.92-5.69 2.07 2.76 5.4-5.93 1.2 1.93 5.74-6.04.3 1.05 5.97-6.02-.61.16 6.06-5.86-1.5-.74 6.02-5.58-2.35-1.63 5.84-5.16-3.17-2.48 5.53-4.63-3.9-3.28 5.09-4-4.56-4 4.56-3.28-5.1-4.63 3.91-2.48-5.53-5.16 3.17-1.63-5.84-5.58 2.35-.74-6.02-5.86 1.5.16-6.06-6.02.6 1.05-5.97-6.04-.29 1.93-5.75-5.93-1.2 2.76-5.39-5.69-2.07 3.54-4.92-5.31-2.9 4.23-4.33-4.82-3.66 4.82-3.66-4.23-4.34 5.31-2.9-3.54-4.92 5.69-2.07-2.76-5.4 5.93-1.19-1.93-5.75 6.04-.29-1.05-5.97 6.02.6-.16-6.06 5.86 1.5.74-6.02 5.58 2.36 1.63-5.84 5.16 3.16 2.48-5.53 4.63 3.91 3.28-5.1 4 4.56 4-4.55 3.28 5.1 4.63-3.92 2.48 5.53 5.16-3.16 1.63 5.84 5.58-2.36.74 6.02 5.86-1.5-.16 6.07 6.02-.61-1.05 5.97 6.04.3-1.93 5.74 5.93 1.2-2.76 5.4 5.69 2.06-3.54 4.92 5.31 2.9-4.23 4.34z"/><clipPath id="c"><use fill="#fff" xlink:href="#a"/></clipPath></defs><g transform="translate(-975 -2675)"><use fill="#a59d9a" xlink:href="#b"/></g><g opacity=".4" transform="translate(-975 -2675)"><use fill="#fff" xlink:href="#a"/><use fill="#fff" fill-opacity="0" stroke="#a3a3a3" stroke-linecap="round" stroke-linejoin="round" stroke-miterlimit="50" stroke-width="2" clip-path="url(&quot;#c&quot;)" xlink:href="#a"/></g><g transform="translate(-975 -2675)"><text fill="#a59d9a" dominant-baseline="text-before-edge" font-family="Helvetica, Arial, sans-serif" font-size="28" font-style="none" font-weight="400" style="line-height:20px" transform="translate(999 2714)"><tspan letter-spacing="-.28" style="font-kerning:normal">100%</tspan></text></g><g transform="translate(-975 -2675)"><text fill="#a59d9a" dominant-baseline="text-before-edge" font-family="Helvetica, Arial, sans-serif" font-size="12.98" font-style="none" font-weight="400" style="text-transform:uppercase;line-height:20px" transform="translate(1006 2743)"><tspan letter-spacing="-.13" style="font-kerning:normal">secured</tspan></text></g></svg>